<svg version="1.1" id="Calque_1" xmlns="http://www.w3.org/2000/svg" xmlns:xlink="http://www.w3.org/1999/xlink" x="0px" y="0px"
	 width="470px" height="150px" viewBox="30 -5 450 150" xml:space="preserve">
<g>
	<path fill="#FFFFFF" d="M48.16,68.275h17.888v14.779c0,11.672-5.524,16.574-18.163,16.574s-17.749-4.902-17.749-15.884V62.129
		c0-11.257,4.903-15.884,17.749-15.884s18.163,4.696,18.163,16.505h-9.53c0-5.18-1.244-8.08-8.633-8.08
		c-6.906,0-8.219,2.9-8.219,7.942v20.649c0,5.041,1.312,7.942,8.219,7.942s8.633-2.901,8.633-8.149v-6.146H48.16V68.275z"/>
	<path fill="#FFFFFF" d="M72.26,83.745V62.129c0-11.257,4.902-15.884,17.748-15.884s18.164,4.627,18.164,15.884v21.616
		c0,10.981-5.525,15.884-18.164,15.884S72.26,94.727,72.26,83.745z M98.641,83.262V62.612c0-5.042-1.243-7.942-8.633-7.942
		c-6.906,0-8.219,2.9-8.219,7.942v20.649c0,5.041,1.312,7.942,8.219,7.942S98.641,88.303,98.641,83.262z"/>
	<path fill="#FFFFFF" d="M142.146,46.383h9.53v37.362c0,10.981-5.524,15.884-18.163,15.884s-17.749-4.902-17.749-15.884V46.383h9.53
		v36.879c0,5.041,1.312,7.942,8.219,7.942s8.633-2.901,8.633-7.942V46.383z M127.781,41.549l-4.973-1.52l6.838-11.188h8.84
		l6.836,11.188l-5.248,1.52l-6.008-7.39L127.781,41.549z"/>
	<path fill="#FFFFFF" d="M187.17,55.016h-10.98v44.476h-9.461V55.016h-11.051v-8.494h31.492V55.016z"/>
	<path fill="#FFFFFF" d="M222.801,46.383c12.846,0,18.164,4.627,18.164,15.885v21.615c0,10.981-5.525,15.746-18.164,15.746h-18.231
		V46.383H222.801z M222.801,90.858c6.906,0,8.633-2.417,8.633-7.458V62.75c0-5.041-1.104-7.665-8.494-7.665h-8.908v35.773H222.801z"
		/>
	<path fill="#FFFFFF" d="M245.795,55.707c4.49-3.385,4.904-6.562,4.904-12.225h9.736c0,11.05-1.863,15.677-10.428,17.749
		L245.795,55.707z"/>
</g>
<g>
	<path fill="#FFFFFF" d="M357.349,44.674h9.53v37.362c0,10.981-5.524,15.884-18.163,15.884c-12.638,0-17.749-4.902-17.749-15.884
		V44.674h9.531v36.879c0,5.041,1.312,7.942,8.218,7.942c6.906,0,8.633-2.901,8.633-7.942V44.674z"/>
	<path fill="#FFFFFF" d="M383.312,89.149h22.03v8.702h-31.562V60.42c0-11.257,4.904-15.884,17.749-15.884h13.397v8.425H391.53
		c-6.906,0-8.218,2.9-8.218,7.942v5.663h17.955v8.633h-17.955V89.149z"/>
	<path fill="#FFFFFF" d="M429.027,97.989h-19.199v-8.702h17.956c5.456,0,7.528-2.071,7.528-8.08
		c0-14.088-25.484,2.211-25.484-21.754c0-10.083,6.492-14.917,17.68-14.917h13.882v8.356c-1.935,0-10.429-0.069-12.362-0.069
		c-7.39,0-9.6,1.036-9.6,6.562c0,12.914,25.415-2.693,25.415,21.478C444.843,93.155,440.008,97.989,429.027,97.989z"/>
	<path fill="#FFFFFF" d="M479.646,53.307h-10.981v44.476h-9.462V53.307h-11.049v-8.494h31.492V53.307z"/>
</g>
<g>
	<path fill="#FFFFFF" d="M279.492,24.517c-9.895,0-19.021,3.253-26.402,8.728c-0.383-0.433-0.787-0.854-1.268-1.232
		c-0.309-0.242-0.643-0.471-1.02-0.667c-0.193-0.095-0.396-0.181-0.617-0.253c-0.119-0.033-0.225-0.068-0.359-0.091
		c-0.113-0.019-0.188-0.037-0.354-0.042c-1.52-0.246-3.072-0.564-4.537-0.995c-0.736-0.219-1.469-0.474-2.08-0.796
		c-0.301-0.151-0.564-0.361-0.639-0.465c-0.27-0.381-0.607-0.74-0.916-1.027c-0.318-0.299-0.641-0.564-0.936-0.818
		c-0.068-0.059-0.123-0.111-0.188-0.168l1.117-0.284c0.793-0.218,1.59-0.378,2.463-0.876c0.217-0.143,0.459-0.301,0.666-0.629
		c0.219-0.309,0.26-0.854,0.066-1.211c-0.211-0.386-0.486-0.546-0.709-0.67c-0.229-0.123-0.443-0.202-0.65-0.273
		c-0.797-0.266-1.643-0.421-2.096-0.736c-0.045-0.033-0.072-0.061-0.094-0.084c0.008-0.006,0.01-0.01,0.02-0.016
		c0.221-0.148,0.611-0.273,0.977-0.377l1.17-0.324c0.203-0.062,0.406-0.128,0.627-0.229c0.107-0.049,0.225-0.113,0.35-0.209
		c0.062-0.049,0.131-0.116,0.191-0.205l0.039-0.065l0.004-0.009l0.008-0.017l0.016-0.04c0.035-0.088,0.053-0.219,0.041-0.289
		c-0.051-0.307-0.207-0.419-0.305-0.516c-0.109-0.086-0.213-0.154-0.314-0.207c-0.201-0.111-0.398-0.194-0.594-0.271
		c-0.393-0.152-0.781-0.275-1.168-0.395l-1.152-0.349c-0.182-0.06-0.383-0.126-0.502-0.194c-0.162-0.1-0.316-0.213-0.465-0.332
		c-0.586-0.48-1.09-1.111-1.199-1.855c-0.109-0.746,0.225-1.515,0.727-2.12c0.498-0.618,1.127-1.132,1.783-1.593
		c-0.688,0.414-1.355,0.883-1.912,1.482c-0.555,0.584-0.996,1.385-0.934,2.266c0.068,0.877,0.594,1.637,1.215,2.191
		c0.156,0.142,0.32,0.275,0.496,0.396c0.221,0.145,0.404,0.208,0.598,0.291l1.131,0.438c0.371,0.145,0.74,0.293,1.086,0.459
		c0.172,0.082,0.342,0.17,0.484,0.265c0.031,0.019,0.049,0.036,0.072,0.056c-0.018,0.008-0.025,0.016-0.045,0.022
		c-0.15,0.06-0.332,0.11-0.518,0.154l-1.17,0.255c-0.408,0.102-0.812,0.176-1.285,0.439c-0.117,0.066-0.25,0.164-0.373,0.314
		c-0.125,0.158-0.232,0.383-0.197,0.682c0.047,0.389,0.293,0.672,0.5,0.844c0.869,0.632,1.672,0.73,2.369,1.032
		c0.236,0.077,0.479,0.228,0.574,0.304c-0.025,0.025-0.105,0.088-0.213,0.144c-0.549,0.271-1.354,0.439-2.115,0.601l-1.189,0.246
		c-0.188,0.044-0.416,0.08-0.711,0.202c-0.143,0.063-0.322,0.146-0.521,0.352c-0.225,0.194-0.359,0.702-0.266,0.983
		c0.158,0.551,0.365,0.678,0.523,0.885c0.168,0.179,0.324,0.324,0.477,0.467c0.305,0.281,0.594,0.539,0.852,0.803
		c0.268,0.271,0.473,0.511,0.66,0.794c0.402,0.55,0.828,0.795,1.229,1.028c0.807,0.441,1.602,0.721,2.398,0.976
		c1.6,0.497,3.182,0.85,4.816,1.144l0.201,0.01c-0.115,0.008-0.021,0.006,0.002,0.021c0.033,0.008,0.088,0.033,0.133,0.047
		c0.102,0.043,0.209,0.1,0.318,0.162c0.223,0.133,0.447,0.303,0.666,0.492c0.438,0.382,0.842,0.857,1.215,1.361
		c0.193,0.252,0.357,0.512,0.529,0.767l0.529,0.862c0.547,0.863,1.355,1.359,2.09,1.682c1.502,0.63,2.951,0.789,4.363,0.924
		c0.705,0.062,1.4,0.092,2.08,0.128c0.299,0.017,0.615,0.032,0.914,0.054c-0.02,0.053-0.043,0.104-0.061,0.157
		c-0.24,0.711-0.455,1.421-0.539,2.294c-0.018,0.446-0.088,0.922,0.238,1.672c0.051,0.097,0.096,0.187,0.17,0.287l0.111,0.146
		c0.057,0.064,0.119,0.127,0.184,0.186l0.125,0.103l0.051,0.039l0.113,0.073l0.025,0.015l0.053,0.03l0.1,0.054
		c0.242,0.123,0.422,0.191,0.6,0.26c0.689,0.26,1.279,0.463,1.836,0.719c1.117,0.48,1.947,1.208,2.027,1.824
		c0.047,0.24,0.031,0.253-0.002,0.423c-0.037,0.144-0.127,0.339-0.264,0.565c-0.271,0.46-0.711,1.005-1.131,1.68
		c-0.418,0.67-0.822,1.564-0.871,2.561c-0.059,0.996,0.244,1.923,0.623,2.672c0.373,0.731,0.902,1.423,1.359,1.951
		c0.469,0.542,0.955,1.061,1.449,1.566c1.98,2.019,4.131,3.796,6.236,5.531c1.031,0.863,2.129,1.739,2.934,2.572
		c0.094,0.1,0.182,0.199,0.244,0.28c0.049,0.06,0.023,0.037,0.039,0.044c-0.004-0.019,0.031,0.053,0.047,0.08l0.012,0.021v0.001
		c0.035,0.1,0.094,0.29,0.105,0.54c0.043,0.491-0.006,1.107-0.096,1.722c-0.18,1.242-0.502,2.534-0.846,3.837l-1.053,3.958
		c-0.146,0.56,0.066,1.179,0.574,1.518c0.268,0.18,0.588,0.418,0.881,0.639c0.297,0.229,0.588,0.463,0.877,0.704
		c0.574,0.486,1.135,0.986,1.662,1.517c0.531,0.527,1.031,1.077,1.496,1.649c0.455,0.576,0.904,1.158,1.266,1.776
		c0.207,0.31,0.348,0.602,0.502,0.893c0.16,0.255,0.307,0.698,0.461,1.039c0.172,0.413,0.205,0.938,0.082,1.58
		c-0.031,0.18-0.092,0.372-0.141,0.56c-0.418-0.916-0.879-1.813-1.412-2.674c-0.309-0.517-0.66-1.009-1.014-1.5
		c-0.176-0.246-0.377-0.476-0.562-0.714c-0.189-0.237-0.381-0.473-0.594-0.691l-0.623-0.667l-0.674-0.621
		c-0.436-0.429-0.953-0.771-1.426-1.157c-0.133-0.106-0.295-0.188-0.473-0.228c-0.609-0.132-1.209,0.255-1.342,0.863l-0.01,0.049
		c-0.529,2.443-1.146,4.902-1.814,7.324c-0.359,1.204-0.693,2.419-1.1,3.602c-0.373,1.201-0.822,2.356-1.252,3.526l-0.016,0.04
		c-0.068,0.186-0.078,0.394-0.014,0.598c0.152,0.488,0.674,0.761,1.164,0.607c0.402-0.127,1.018-0.159,1.443-0.021
		c0.156,0.042,0.297,0.113,0.43,0.196c-0.797,0.12-1.523,0.527-2.037,1.03c-0.568,0.556-1.002,1.178-1.322,1.854
		c-0.309,0.674-0.543,1.305-0.775,1.953c-0.465,1.282-0.889,2.597-1.283,3.89c-0.797,2.57-1.711,5.11-2.902,7.521
		c-0.604,1.2-1.266,2.373-2.049,3.464c-0.393,0.545-0.824,1.063-1.311,1.525c-0.482,0.467-1.023,0.882-1.664,1.123
		c0.652-0.189,1.244-0.571,1.768-1.007c0.529-0.433,1.008-0.927,1.449-1.449c0.889-1.044,1.637-2.198,2.314-3.386
		c0.441-0.778,0.844-1.576,1.232-2.382c3.703,1.003,7.592,1.56,11.613,1.56c24.52,0,44.395-19.877,44.395-44.395
		S304.012,24.517,279.492,24.517z M243.562,20.27C243.574,20.285,243.572,20.292,243.562,20.27L243.562,20.27z M275.574,90.411
		l5.924-0.216c0.053,0.124,0.117,0.244,0.168,0.37c0.199,0.501,0.389,1.005,0.553,1.516c0.082,0.255,0.16,0.511,0.23,0.766
		c0.07,0.249,0.139,0.525,0.186,0.734c0.045,0.204,0.148,0.385,0.279,0.543l-8.482-0.384c0.051-0.144,0.102-0.287,0.154-0.43
		C274.947,92.351,275.26,91.381,275.574,90.411z M278.867,85.711c0.16,0.212,0.334,0.412,0.484,0.633
		c0.303,0.438,0.607,0.876,0.875,1.341c0.254,0.425,0.49,0.862,0.715,1.306l-4.873-0.178c0.475-1.565,0.916-3.139,1.334-4.722
		l0.428,0.415l0.527,0.594C278.541,85.291,278.705,85.499,278.867,85.711z M273.721,95.554l0.064-0.155l18.633-0.844l-7.635-0.346
		c0.186-0.184,0.334-0.408,0.381-0.686l0.002-0.011c0.109-0.64,0.326-1.323,0.584-2.061c0.154-0.449,0.314-0.928,0.465-1.43
		l11.518-0.42l-11.297-0.412c0.014-0.063,0.035-0.116,0.047-0.181c0.189-0.898,0.229-2.025-0.197-3.086
		c-0.059-0.137-0.105-0.263-0.154-0.392l15.049-0.883l-15.949-0.937c-0.021-0.035-0.041-0.075-0.062-0.109
		c-0.432-0.752-0.936-1.437-1.461-2.1c-0.334-0.415-0.701-0.792-1.059-1.18l20.787-0.628l-22.033-0.666
		c-0.395-0.371-0.795-0.734-1.205-1.086c-0.316-0.267-0.639-0.528-0.969-0.783c-0.07-0.055-0.141-0.106-0.211-0.16l0.412-1.521
		l25.311-0.736l-24.912-0.724l0.014-0.054c0.303-1.12,0.584-2.271,0.805-3.472l24.594-0.704l-24.379-0.699
		c0.055-0.515,0.09-1.046,0.047-1.64c-0.031-0.43-0.111-0.916-0.332-1.45l-0.018-0.049l-0.053-0.103l-0.029-0.057
		c-0.025-0.046-0.025-0.054-0.078-0.142c-0.02-0.032-0.043-0.066-0.064-0.101l24.646-0.712l-25.959-0.749
		c-0.846-0.798-1.68-1.453-2.516-2.146c-0.49-0.4-0.979-0.799-1.463-1.199l28.893-0.859l-30.988-0.923
		c-0.859-0.752-1.699-1.517-2.492-2.315c-0.262-0.265-0.508-0.539-0.758-0.809l32.297-0.906l-33.773-0.946
		c-0.031-0.055-0.07-0.104-0.1-0.161c-0.471-0.97-0.463-1.545,0.127-2.528c0.076-0.129,0.164-0.262,0.258-0.397l30.461-0.92
		l-29.332-0.886c0.117-0.25,0.227-0.519,0.303-0.83c0.135-0.491,0.119-1.18,0.01-1.604c-0.062-0.29-0.16-0.558-0.275-0.812
		l24.688-0.822l-26.01-0.865c-0.654-0.539-1.344-0.898-2.012-1.192c-0.691-0.302-1.4-0.529-1.99-0.741
		c-0.051-0.018-0.096-0.036-0.143-0.054c-0.002-0.058-0.002-0.121,0.006-0.187c0.021-0.298,0.094-0.644,0.184-0.998l22.107-0.915
		l-19.684-0.814c3.891-1.666,8.174-2.591,12.674-2.591c17.807,0,32.24,14.435,32.24,32.24c0,17.805-14.434,32.242-32.24,32.242
		c-2.297,0-4.529-0.257-6.689-0.716c0.041-0.054,0.084-0.101,0.127-0.152l9.041-0.776l-5.336-0.458
		c0.146-0.146,0.264-0.36,0.27-0.49c0.043-0.378-0.029-0.441-0.049-0.544c-0.127-0.33-0.168-0.392-0.316-0.644
		c-0.107-0.155-0.143-0.258-0.322-0.468c-0.15-0.197-0.312-0.363-0.48-0.502c-0.336-0.289-0.734-0.527-1.154-0.665
		C274.289,95.642,274.004,95.588,273.721,95.554z M279.492,111.988c-3.82,0-7.518-0.519-11.043-1.453
		c0.445-0.996,0.855-2.009,1.248-3.026c3.135,0.794,6.412,1.233,9.795,1.233c21.998,0,39.832-17.832,39.832-39.832
		c0-21.998-17.834-39.831-39.832-39.831c-8.551,0-16.465,2.701-22.955,7.288c-0.258-0.068-0.508-0.143-0.74-0.234
		c-0.516-0.201-0.912-0.479-1.109-0.777l-0.586-0.855c-0.061-0.08-0.123-0.156-0.182-0.236c7.154-5.291,15.992-8.434,25.572-8.434
		c23.793,0,43.08,19.287,43.08,43.08C322.572,92.701,303.285,111.988,279.492,111.988z"/>
	<path fill="#FFFFFF" d="M272.484,70.231c-0.082,1.261,0.354,1.579,0.885,1.843c0.246,0.117,0.408,0.195,0.486,0.469
		c0.109,0.406,0.588,0.891,0.711,1.352c0.324,1.271,1.674,1.32,1.404,0.068l-0.348-1.84c0.26-0.527,0.496-1.447-0.15-1.81
		c-0.18-0.101-0.389-0.199-0.605-0.298c-0.432-0.203-0.969-0.449-1.037-0.69c-0.1-0.354-0.355-0.715-0.693-0.681
		C272.752,68.688,272.551,69.176,272.484,70.231z"/>
	<path fill="#FFFFFF" d="M273.836,66.844c0.814,0.443,2.426,1.846,2.414,2.156c-0.012,0.31,1.166-0.684,0.576-1.637
		c-0.588-0.953-3.219-2.703-3.641-2.615C272.742,65.561,273.027,66.4,273.836,66.844z"/>
</g>
</svg>
